PathFileType	4	(X/Y/Z)	C:/Users/opensim2020/Desktop/walking_exp_matlab/subject03_walking14_straight_03.trc																																																																																																																																											
DataRate	CameraRate	NumFrames	NumMarkers	Units	OrigDataRate	OrigDataStartFrame	OrigNumFrames																																																																																																																																							
100	100	4	47	mm	100	1770	215																																																																																																																																							
Frame#	Time	LFHD			RFHD			LBHD			RBHD			C7			T10			CLAV			STRN			RBAK			LSHO			LUPA			LELB			LFRM			LWRA			LWRB			LFIN			RSHO			RUPA			RELB			RFRM			RWRA			RWRB			RFIN			LASI			RASI			LPSI			RPSI			LTHI			LKNE			LTIB			LANK			LHEE			LTOE			RTHI			RKNE			RTIB			RANK			RHEE			RTOE			*39			*40			*41			*42			*43			*44			*45			*46		
		X1	Y1	Z1	X2	Y2	Z2	X3	Y3	Z3	X4	Y4	Z4	X5	Y5	Z5	X6	Y6	Z6	X7	Y7	Z7	X8	Y8	Z8	X9	Y9	Z9	X10	Y10	Z10	X11	Y11	Z11	X12	Y12	Z12	X13	Y13	Z13	X14	Y14	Z14	X15	Y15	Z15	X16	Y16	Z16	X17	Y17	Z17	X18	Y18	Z18	X19	Y19	Z19	X20	Y20	Z20	X21	Y21	Z21	X22	Y22	Z22	X23	Y23	Z23	X24	Y24	Z24	X25	Y25	Z25	X26	Y26	Z26	X27	Y27	Z27	X28	Y28	Z28	X29	Y29	Z29	X30	Y30	Z30	X31	Y31	Z31	X32	Y32	Z32	X33	Y33	Z33	X34	Y34	Z34	X35	Y35	Z35	X36	Y36	Z36	X37	Y37	Z37	X38	Y38	Z38	X39	Y39	Z39	X40	Y40	Z40	X41	Y41	Z41	X42	Y42	Z42	X43	Y43	Z43	X44	Y44	Z44	X45	Y45	Z45	X46	Y46	Z46	X47	Y47	Z47
																																																																																																																																														
189	1.88	872.00781	1617.83765	1353.08691	885.83771	1635.25671	1484.54712	756.27362	1552.13647	1376.97314	774.73676	1569.49048	1505.22046	752.13165	1406.24329	1426.87146	744.03925	1092.2323	1427.89734	877.58441	1339.26135	1439.38733	934.87134	1178.79041	1444.08728	702.06274	1227.9552	1517.81445	845.16052	1370.0426	1279.19995	852.49121	1171.92542	1209.52795	867.06549	1049.40869	1196.26978	897.74487	922.21497	1196.01294	913.67261	803.09467	1224.64197	899.83295	810.63171	1170.01245	914.08923	727.18396	1177.98242	811.39209	1363.50684	1593.00146	830.19305	1146.01208	1674.84961	864.85486	1039.15649	1692.50757	918.58966	913.64581	1695.42444	976.91138	833.20935	1659.11194	946.7027	817.09985	1701.328	988.22656	754.98724	1688.53699	928.89807	942.38757	1329.45557	895.95251	932.6803	1564.21045	761.73541	961.85455	1355.41833	742.15216	960.54865	1504.77368	911.30493	636.14111	1292.70569	926.92059	462.96976	1346.09155	861.03369	272.93411	1336.60913	797.98737	74.55797	1373.16809	746.11969	44.272	1399.38245	937.63641	36.08921	1423.37317	879.14185	633.31604	1603.61816	933.92163	461.46872	1588.58752	791.62927	339.31326	1584.75879	627.51691	201.89059	1538.08984	577.80609	207.60176	1481.27844	691.81122	74.83839	1532.72241	NaN	NaN	NaN	785.38293	1664.9668	1409.02905	NaN	NaN	NaN	NaN	NaN	NaN	NaN	NaN	NaN	NaN	NaN	NaN	NaN	NaN	NaN	NaN	NaN	NaN
190	1.89	884.38495	1618.97961	1352.6637	898.32288	1636.39502	1483.82373	768.47449	1553.4939	1376.78943	787.297	1570.92249	1505.03308	764.31525	1407.82971	1427.16418	755.39777	1093.67627	1427.84412	889.70941	1340.64526	1439.12317	946.495	1179.86475	1443.00562	714.15021	1229.64099	1518.24561	856.28595	1371.49683	1278.97388	866.45569	1173.8988	1209.62671	884.56592	1051.7843	1196.95264	919.54407	925.69049	1197.60974	940.01636	807.48694	1227.3407	925.40649	814.06042	1172.75952	942.88275	731.42682	1181.01343	824.1626	1364.64014	1592.87048	840.87549	1146.67932	1674.48608	873.8233	1039.20349	1691.82141	924.12079	912.21674	1694.89404	980.06738	829.69867	1659.00659	949.35529	814.91248	1701.44617	988.82257	751.28308	1688.97424	938.62006	942.63104	1327.69543	907.95123	934.40607	1563.10229	772.52197	963.19391	1355.78625	753.93909	962.25922	1505.13916	916.97888	636.09491	1292.51172	929.72589	462.94043	1345.52466	862.31506	273.30502	1336.22571	798.50867	75.11729	1372.93176	746.29443	45.09742	1399.18518	937.73621	36.0452	1423.39246	896.92322	636.24878	1603.34082	955.66241	465.71051	1588.10864	817.32391	338.46848	1584.57971	658.42035	194.48355	1538.61462	607.95386	197.20656	1481.93762	730.09735	71.99244	1533.98816	NaN	NaN	NaN	798.24664	1666.86963	1410.08374	NaN	NaN	NaN	NaN	NaN	NaN	NaN	NaN	NaN	NaN	NaN	NaN	NaN	NaN	NaN	NaN	NaN	NaN
191	1.9	896.82025	1620.1167	1352.30078	911.02289	1637.53821	1483.55334	780.54132	1554.77576	1376.55945	799.82861	1572.28687	1504.86707	776.27032	1409.38159	1427.03503	766.65747	1094.85657	1427.83594	901.66351	1341.73816	1438.62891	958.02246	1180.81299	1441.74829	726.25073	1231.23706	1518.64063	867.26013	1372.98853	1278.78088	880.25659	1175.90503	1209.51526	901.62305	1054.17285	1197.58142	941.10345	929.43445	1199.26514	966.39447	812.50171	1229.88403	950.83551	817.78729	1175.79749	971.55859	736.17047	1184.56812	837.07751	1365.6626	1592.79297	851.30743	1147.07947	1673.66907	882.43146	1039.08228	1691.09094	929.46802	910.76257	1694.40747	983.10675	826.43933	1659.07336	951.80164	812.71899	1701.43152	989.32422	747.8089	1689.46167	948.69147	943.26385	1326.13831	920.36035	936.16589	1562.00989	782.57996	964.05072	1356.14624	765.65784	963.79828	1505.55737	921.77197	636.28033	1292.55676	932.01056	462.7536	1344.87451	863.29602	273.83325	1335.83679	798.90826	75.70308	1372.51794	746.76038	45.88288	1399.28149	937.84149	36.0163	1423.35144	914.37598	639.17181	1603.17957	976.17731	469.86096	1586.91309	842.95648	337.12518	1584.39185	690.25128	186.11104	1538.9873	639.27808	185.92319	1482.3988	768.98163	68.43831	1534.89978	NaN	NaN	NaN	811.00238	1668.82983	1410.60632	NaN	NaN	NaN	NaN	NaN	NaN	NaN	NaN	NaN	NaN	NaN	NaN	NaN	NaN	NaN	NaN	NaN	NaN
192	1.91	909.07416	1621.17749	1352.00574	923.72662	1638.60669	1483.30188	793.57538	1556.3114	1376.8844	812.39172	1573.46973	1504.6969	788.25073	1410.55811	1427.37402	777.78693	1096.61328	1427.61096	913.57385	1342.72949	1438.09839	969.54492	1181.61597	1440.43188	738.29376	1232.71936	1518.91943	878.23413	1374.43274	1278.53333	893.74414	1177.61194	1209.43652	918.38556	1056.58594	1198.22949	962.46118	933.3866	1200.94397	992.40894	817.88403	1232.6991	976.1405	822.0188	1178.74719	1000.31635	741.50897	1188.07861	850.1048	1366.55676	1592.69287	861.92462	1147.57605	1673.29028	890.85272	1038.86584	1690.43042	934.70447	909.29572	1694.00964	986.01721	823.23749	1659.17126	954.08728	810.62848	1701.42261	989.62366	744.54504	1689.88794	958.47052	943.58209	1324.58264	932.87201	937.71735	1560.97351	792.76923	965.27795	1356.80859	777.37781	965.16425	1506.07666	926.70178	636.50623	1292.24243	934.38074	463.03558	1344.06201	864.13129	274.48645	1335.36865	798.89264	76.66792	1372.52417	746.69391	47.3768	1399.27258	937.90338	36.03328	1423.33398	931.3819	642.14325	1602.55688	996.3548	474.04349	1585.95898	868.61444	335.3172	1584.06384	722.99316	176.93021	1539.32703	671.74066	173.36018	1483.03137	808.79083	64.96707	1535.79407	NaN	NaN	NaN	823.34668	1669.39233	1409.52136	NaN	NaN	NaN	NaN	NaN	NaN	NaN	NaN	NaN	NaN	NaN	NaN	NaN	NaN	NaN	NaN	NaN	NaN
